inDegrees=yes
name=ik_coleta2_trike_mov
DataType=double
version=3
OpenSimVersion=4.4-2022-07-23-0e9fedc
endheader
time	hip_flexion_r	knee_angle_r	hip_flexion_l	knee_angle_l	gearToGround_coord_0
35.02445006370544	96.98762621237373	-102.4445724208618	99.23821513309927	-72.23233501963976	-1288.095091673485
35.03945207595825	97.74178212476271	-103.1551581364265	98.94793381030743	-71.91366890010175	-1289.582046089444
35.04536700248718	97.61152514225647	-102.9437389896957	98.98656399588715	-71.97025987150303	-1289.491918175487
35.05137085914612	98.41501391437016	-103.8403006172312	97.96313259872815	-70.92817911490906	-1291.708626946038
35.05542397499084	98.40881211218533	-103.8335514851765	97.96344779206517	-70.92793648488914	-1291.701004464821
35.06136107444763	99.27194473481022	-104.7600864339904	97.16646339198572	-70.0530268337599	-1294.043769249417
35.06837105751038	99.27194473481022	-104.7600864339904	97.16646339198572	-70.0530268337599	-1294.043769249417
35.07537913322449	100.0642384890729	-105.577916094153	96.2222751717992	-69.054676573931	-1296.171602077806
35.08537483215332	100.9228039214698	-106.4295551302365	95.49608613834427	-68.24057796650676	-1298.454071630892
35.09138298034668	100.9228039214698	-106.4295551302365	95.49608613834427	-68.24057796650676	-1298.454071630892
35.09536099433899	101.81575239936	-107.2781760952157	94.59611248532755	-67.31791111432753	-1300.813270216379
35.09937191009521	101.8728884110992	-107.331189093778	94.53586817315779	-67.27192139646482	-1300.961696977292
35.10845518112183	104.8603547372493	-109.8940043153345	91.49141976130819	-64.0927284337355	-1308.726722320084
35.12140512466431	107.2802531124532	-111.6743534517144	89.44789075353589	-62.47961268485562	-1314.967517418152
35.12538695335388	108.0490988214679	-112.1845626678484	88.56879674011661	-61.64328872415929	-1316.96786548043
35.13136887550354	112.2112025080294	-114.4617860627998	85.2575035016864	-59.01694372366335	-1328.048034075515
35.1404139995575	113.013040229409	-114.7993449905579	84.77842656096911	-58.95909218682845	-1330.276783565912
35.14636611938477	113.1844657884414	-114.8668218062653	84.64987092606614	-58.87924957918327	-1330.761499814342
35.15037512779236	113.9701849243109	-115.1541308052501	84.05149580980539	-58.5560508150275	-1333.011220149841
35.15442085266113	114.5098326549117	-115.3296190873202	83.65046806870423	-58.35550677415193	-1334.588461694966
35.16040992736816	116.0925582801066	-115.729620930933	82.49822730698962	-57.75171671930393	-1339.422409311998
35.16836810112	116.7196844316315	-115.8346866951949	82.07447576197038	-57.76993557505278	-1341.443713089643
35.17537093162537	117.4358753074932	-116.2021478789036	81.75817778949563	-57.69160106527148	-1343.165035925796
35.18037796020508	117.7990989222857	-115.9309913748326	81.38447583153555	-57.64180805998842	-1345.121444861843
35.18942713737488	118.2395152947469	-116.1270478775266	81.2514622517388	-57.64327371691505	-1345.849021703311
35.19838404655457	118.7667899548096	-116.2304525225602	80.89637914176237	-57.67555721592795	-1347.831138666224
35.20837903022766	119.3193784281843	-116.1771996235798	80.5221231078968	-57.58509165329884	-1349.940827552048
35.21337890625	119.5875362871059	-116.1346081813184	80.36859441751415	-57.65375813113792	-1351.013165323971
35.21738314628601	120.0971237419544	-116.0176832232472	80.06361001327878	-57.78048452062334	-1353.149388772043
35.22536897659302	120.3187729140004	-115.9503582941047	79.92797414858244	-57.84217657000269	-1354.127662316802
35.22936487197876	121.0286809367084	-115.6496982342303	79.46775194377287	-58.0682642795664	-1357.516201581438
35.23337316513062	121.1596468681171	-115.577106050071	79.37848134747175	-58.12076997336271	-1358.195841074963
35.23741006851196	121.8936074172434	-115.0289881749003	78.79819733458255	-58.49739407370484	-1362.449394543433
35.24238085746765	121.9779489657417	-114.9455869147599	78.75383079607862	-58.5905850519246	-1363.006715944301
35.2493748664856	122.4207033839263	-114.4012079089228	78.53222758132537	-59.20341311624237	-1366.279855993676
35.25337600708008	122.4743578329101	-114.319062894759	78.5249588545182	-59.29751856719999	-1366.731477125557
35.25739002227783	122.9971355190918	-113.134221462148	78.3262791223468	-60.62457945313835	-1372.450251381219
35.26136803627014	123.0154407227324	-113.0704446137849	78.32257560921641	-60.69587717616837	-1372.726203338462
35.26637196540833	123.2040682029744	-112.0042478465291	78.3021862243081	-61.88425440333339	-1377.013510608629
35.27242112159729	123.2042361958538	-112.002133014663	78.30336283757285	-61.88573746708484	-1377.016539618847
35.27638387680054	123.2382848095456	-111.332746443323	78.53627670614154	-63.0295049545509	-1379.471559827318
35.28637504577637	122.9762619362626	-108.8243875791223	78.75223750830153	-65.56006312525993	-1387.57350777799
35.29044079780579	122.9982379092847	-108.9367294153785	78.78916596519718	-65.53700517644245	-1387.237068970002
35.296382188797	122.0432238176682	-105.5756482391053	79.52802901338224	-68.90520427337943	-1396.557882931528
35.30237102508545	122.1224668984915	-105.7976773739239	79.65182015176309	-68.90197987783421	-1395.980441409802
35.30738806724548	121.2263922229819	-103.5247015100383	80.1228738510429	-71.21008796329002	-1401.708429844978
35.31137990951538	121.3439563400916	-103.7992264459426	80.19711171589729	-71.16338082544691	-1401.036378610338
35.31636905670166	120.7509442460153	-102.4641264915457	80.45438002697369	-72.29684634916266	-1404.26104342934
35.32140684127808	120.8882876983841	-102.7631279127616	80.5239443530367	-72.25100118112083	-1403.547693181727
35.32540416717529	120.6199328835329	-102.1838747647917	80.62659091043919	-72.54519952490074	-1404.924505410249
35.33137989044189	120.8323463374806	-102.640686813038	80.66741683023244	-72.45368859800105	-1403.840857068811
35.33944582939148	120.5720275382166	-102.0825154000338	80.61474948532498	-72.76678302630219	-1405.163238771878
35.34538006782532	120.6521011481727	-102.2522684627128	80.65588936483354	-72.74212149352584	-1404.762719523555
35.34937906265259	120.3967502437107	-101.7164664988084	80.98253083469987	-73.34274079866965	-1406.021858450158
